<?xml version="1.0" standalone="no"?>
<!DOCTYPE svg PUBLIC "-//W3C//DTD SVG 20010904//EN"
 "http://www.w3.org/TR/2001/REC-SVG-20010904/DTD/svg10.dtd">
<svg version="1.0" xmlns="http://www.w3.org/2000/svg"
 width="458.000000pt" height="110.000000pt" viewBox="0 0 458.000000 110.000000"
 preserveAspectRatio="xMidYMid meet">

<g transform="translate(0.000000,110.000000) scale(0.100000,-0.100000)"
fill="#000000" stroke="none">
<path d="M305 1058 c5 -26 4 -38 -4 -38 -6 0 -11 -7 -11 -15 0 -22 -13 -18
-44 14 -16 16 -34 27 -41 25 -7 -3 -16 -1 -20 5 -12 21 -20 11 -19 -27 0 -21
8 -49 17 -63 20 -28 22 -53 4 -67 -9 -8 -25 -3 -60 19 -35 22 -47 25 -47 14 0
-8 -7 -15 -15 -15 -12 0 -12 -4 2 -28 19 -33 11 -67 -13 -58 -8 3 -13 2 -10
-3 3 -5 37 -16 74 -26 111 -27 159 -65 141 -113 -12 -32 -33 -37 -82 -19 -23
9 -59 19 -80 23 -30 5 -37 3 -37 -10 0 -13 -4 -15 -19 -6 -32 16 -36 12 -13
-13 12 -13 19 -26 16 -30 -3 -3 7 -12 23 -21 59 -30 65 -61 17 -87 -24 -12
-24 -14 -8 -26 23 -17 74 -16 149 2 82 20 118 19 149 -6 30 -24 33 -41 9 -64
-13 -13 -30 -16 -79 -13 -46 3 -61 1 -57 -9 3 -7 -6 -15 -21 -19 -35 -8 -33
-20 5 -28 18 -3 28 -10 24 -16 -5 -7 3 -8 22 -3 53 14 156 8 196 -11 21 -10
59 -45 84 -78 49 -62 105 -101 161 -113 25 -5 32 -3 32 9 0 10 -6 13 -15 9
-28 -10 -102 27 -144 72 -73 79 -51 130 82 195 45 22 93 48 107 60 l25 20 -24
0 c-24 0 -25 7 -5 54 6 17 4 18 -21 12 -18 -5 -31 -3 -36 5 -4 8 -16 -5 -32
-37 -14 -27 -34 -57 -45 -67 -28 -25 -66 -19 -70 12 -3 18 10 37 59 82 62 57
69 71 27 48 -30 -16 -32 -6 -9 44 27 60 27 62 -8 37 -19 -12 -32 -16 -36 -10
-3 6 -23 -11 -44 -37 -21 -27 -45 -54 -54 -61 -25 -21 -40 -5 -32 37 13 71 89
150 146 152 20 0 21 2 6 8 -17 6 -17 8 2 25 30 27 26 35 -17 30 -22 -3 -45 1
-56 9 -18 13 -18 15 8 59 14 25 26 53 26 64 0 16 -2 16 -10 4 -15 -24 -35 2
-21 29 17 31 -11 17 -38 -20 -12 -16 -29 -28 -38 -27 -12 2 -23 -14 -40 -57
-13 -32 -30 -66 -39 -75 -14 -13 -17 -13 -30 5 -11 15 -15 43 -14 105 3 121 1
138 -9 122 -6 -11 -13 -7 -31 15 l-22 28 7 -37z"/>
<path d="M1031 1080 c-76 -16 -139 -67 -178 -144 -69 -136 -22 -302 103 -361
200 -95 414 24 414 231 0 81 -23 145 -72 195 -67 69 -168 99 -267 79z m115
-36 c87 -41 141 -155 131 -272 -11 -117 -64 -188 -147 -199 -55 -8 -85 2 -129
42 -55 50 -82 118 -82 209 -1 171 108 277 227 220z"/>
<path d="M2450 1065 c0 -7 12 -15 28 -17 l27 -3 3 -233 2 -232 -30 -6 c-62
-13 -27 -24 75 -24 63 0 105 4 105 10 0 6 -8 10 -18 10 -35 0 -42 21 -42 122
0 97 0 98 24 98 33 0 67 -39 129 -146 l53 -89 77 -3 c49 -2 77 1 77 8 0 5 -9
10 -20 10 -26 0 -58 34 -122 128 -27 40 -58 78 -68 85 -28 17 -25 24 15 31 47
9 92 56 100 105 9 55 -15 102 -68 132 -39 22 -54 24 -194 26 -124 1 -153 -1
-153 -12z m270 -30 c33 -17 50 -54 50 -107 0 -34 -6 -47 -39 -79 -34 -34 -45
-39 -85 -39 l-46 0 0 119 c0 86 3 121 13 125 17 7 76 -3 107 -19z"/>
<path d="M1573 973 c-21 -10 -33 -24 -33 -36 0 -21 -98 -285 -125 -337 -11
-21 -23 -30 -40 -30 -14 0 -25 -4 -25 -10 0 -6 32 -10 75 -10 43 0 75 4 75 10
0 6 -11 10 -25 10 -30 0 -32 21 -6 95 l18 50 74 0 73 0 18 -55 c23 -74 22 -90
-2 -90 -11 0 -20 -4 -20 -10 0 -6 37 -10 90 -10 53 0 90 4 90 10 0 6 -9 10
-20 10 -30 0 -44 29 -110 233 -34 103 -65 187 -68 186 -4 0 -22 -8 -39 -16z
m26 -140 c11 -39 21 -76 21 -82 0 -7 -23 -11 -60 -11 -33 0 -60 4 -60 9 0 5
11 40 25 77 14 38 28 75 31 83 8 23 20 2 43 -76z"/>
<path d="M1850 970 c0 -5 8 -10 19 -10 16 0 19 -11 25 -94 4 -52 4 -139 0
-195 -6 -89 -9 -101 -25 -101 -11 0 -19 -4 -19 -10 0 -6 33 -10 80 -10 47 0
80 4 80 10 0 6 -8 10 -19 10 -16 0 -19 10 -23 93 -3 50 -3 94 -1 97 9 10 42
-22 95 -96 48 -66 55 -81 43 -90 -27 -20 -16 -24 70 -24 50 0 85 4 85 10 0 6
-9 10 -19 10 -19 0 -44 27 -149 161 l-51 66 57 67 c31 37 74 74 94 84 21 9 38
20 38 25 0 4 -29 7 -65 7 -37 0 -65 -4 -65 -10 0 -5 7 -10 15 -10 25 0 18 -15
-49 -98 -98 -120 -112 -118 -101 13 6 74 10 85 26 85 11 0 19 5 19 10 0 6 -33
10 -80 10 -47 0 -80 -4 -80 -10z"/>
<path d="M2990 971 c0 -5 12 -11 28 -13 26 -3 27 -6 34 -73 4 -38 4 -125 1
-192 -6 -121 -6 -123 -29 -123 -13 0 -24 -4 -24 -10 0 -6 37 -10 90 -10 53 0
90 4 90 10 0 6 -11 10 -25 10 l-25 0 2 193 c3 191 3 192 26 195 12 2 22 8 22
13 0 5 -43 9 -95 9 -52 0 -95 -4 -95 -9z"/>
<path d="M3230 971 c0 -5 12 -11 28 -13 l27 -3 3 -192 2 -193 -30 0 c-16 0
-30 -4 -30 -10 0 -14 254 -13 305 1 93 25 147 100 148 204 1 110 -61 184 -172
205 -68 13 -281 13 -281 1z m277 -32 c49 -24 88 -81 98 -144 13 -79 -32 -177
-95 -210 -35 -18 -111 -20 -128 -3 -13 13 -18 359 -5 371 14 14 89 6 130 -14z"/>
<path d="M3852 959 c-89 -44 -132 -135 -112 -239 18 -97 73 -151 173 -172 44
-9 70 -9 118 1 105 21 109 25 109 98 0 56 2 63 20 63 11 0 20 5 20 10 0 6 -36
10 -87 10 -52 0 -83 -4 -77 -9 5 -5 18 -11 29 -13 16 -3 21 -12 23 -54 4 -76
-20 -93 -123 -85 -75 7 -128 90 -129 201 -1 113 61 193 149 193 58 0 105 -29
136 -86 29 -54 39 -52 39 7 0 61 -10 89 -26 76 -9 -8 -21 -7 -43 4 -46 24
-165 21 -219 -5z"/>
<path d="M4200 968 c0 -4 9 -8 20 -8 35 0 41 -32 38 -212 l-3 -173 -27 -3
c-16 -2 -28 -8 -28 -13 0 -5 73 -9 173 -9 l173 0 16 50 c9 28 14 50 11 50 -3
0 -25 -18 -49 -40 -41 -38 -47 -40 -107 -40 -36 0 -68 5 -75 12 -7 7 -12 44
-12 95 l0 83 45 0 c39 0 47 -4 57 -25 19 -42 28 -28 28 40 0 36 -3 65 -7 65
-5 0 -16 -14 -25 -30 -15 -26 -23 -30 -58 -30 l-40 0 0 90 0 90 51 0 c59 0 80
-9 133 -59 l38 -36 -7 35 c-18 86 -5 81 -185 78 -88 -1 -160 -5 -160 -10z"/>
<path d="M2340 393 c-29 -13 -32 -16 -17 -24 14 -9 17 -27 17 -124 0 -100 -2
-114 -17 -118 -10 -3 2 -5 27 -6 l45 -1 -3 145 c-2 80 -6 145 -10 144 -4 0
-23 -7 -42 -16z"/>
<path d="M3052 394 c-31 -13 -32 -15 -18 -30 13 -12 16 -39 16 -132 l0 -117
61 0 c56 0 63 3 90 33 33 36 36 60 14 102 -17 33 -58 46 -98 31 l-26 -10 -3
69 -3 68 -33 -14z m110 -141 c25 -28 31 -62 18 -94 -14 -33 -52 -48 -75 -29
-19 16 -21 126 -2 133 24 10 44 7 59 -10z"/>
<path d="M850 387 c24 -12 25 -16 28 -130 3 -114 2 -118 -20 -127 -18 -7 -11
-9 32 -9 40 0 49 3 34 9 -18 7 -22 20 -28 106 -4 53 -3 101 2 106 4 4 42 -31
84 -79 42 -49 93 -104 112 -122 l36 -35 0 105 c0 130 8 177 29 182 9 3 -9 5
-39 5 -41 1 -49 -2 -33 -8 17 -7 23 -20 28 -62 4 -29 5 -73 3 -98 l-3 -45 -94
108 -95 107 -50 0 c-48 0 -49 -1 -26 -13z"/>
<path d="M2558 390 c21 -9 22 -14 22 -130 0 -116 -1 -121 -22 -130 -16 -6 18
-9 103 -9 l127 -1 10 41 11 42 -30 -37 c-29 -34 -34 -36 -90 -36 l-59 0 0 129
c0 126 1 130 23 134 12 2 -9 5 -48 5 -51 1 -64 -2 -47 -8z"/>
<path d="M1563 373 c-23 -8 -14 -33 12 -33 15 0 25 6 25 14 0 16 -19 25 -37
19z"/>
<path d="M1438 317 c-4 -9 -19 -22 -33 -29 -26 -12 -35 -30 -12 -25 8 1 14
-19 17 -67 6 -78 19 -94 66 -81 l29 8 -25 6 c-23 6 -25 11 -25 71 0 64 0 65
28 65 15 -1 27 3 27 7 0 4 -13 8 -29 8 -25 0 -30 4 -33 28 -2 22 -4 23 -10 9z"/>
<path d="M3863 300 c-25 -23 -28 -30 -16 -34 13 -5 15 -18 10 -66 -7 -80 19
-106 80 -83 16 6 15 8 -7 13 -23 6 -25 10 -25 70 0 64 0 65 30 71 l30 7 -32 1
c-26 1 -32 6 -35 25 l-3 25 -32 -29z"/>
<path d="M1234 276 c-32 -14 -50 -41 -34 -51 15 -9 30 4 30 26 0 14 7 19 30
19 26 0 30 -4 30 -28 0 -23 -7 -31 -42 -47 -33 -16 -44 -26 -46 -48 -4 -34 19
-45 61 -29 20 8 36 8 49 1 20 -11 58 -4 58 11 0 5 -7 7 -15 4 -12 -5 -15 5
-15 59 0 93 -29 116 -106 83z m54 -108 c-2 -25 -8 -33 -23 -33 -26 0 -32 35
-9 52 28 20 36 16 32 -19z"/>
<path d="M1565 276 c-19 -8 -25 -15 -17 -20 7 -4 12 -31 12 -66 0 -47 -3 -59
-17 -63 -10 -3 6 -5 36 -6 46 -1 52 1 38 12 -12 9 -17 31 -19 84 l-3 71 -30
-12z"/>
<path d="M1698 275 c-53 -30 -63 -86 -24 -132 20 -23 32 -28 70 -28 57 0 97
34 98 84 2 65 -84 110 -144 76z m77 -15 c34 -38 14 -140 -28 -140 -6 0 -19 7
-29 17 -24 21 -25 99 -1 125 21 23 36 23 58 -2z"/>
<path d="M1897 273 c-26 -13 -27 -16 -12 -27 13 -10 16 -24 14 -69 -4 -55 -3
-57 21 -57 24 0 25 2 25 66 0 53 4 69 18 78 12 8 22 8 35 0 13 -9 17 -25 17
-78 l0 -66 40 1 c22 1 32 3 23 6 -14 3 -18 18 -20 71 -3 59 -6 68 -29 81 -22
12 -29 12 -57 -2 -26 -13 -33 -13 -39 -2 -7 11 -13 11 -36 -2z"/>
<path d="M2154 276 c-32 -14 -50 -41 -34 -51 15 -9 30 4 30 26 0 14 7 19 30
19 26 0 30 -4 30 -28 0 -23 -7 -31 -42 -47 -33 -16 -44 -26 -46 -48 -4 -33 16
-43 59 -28 22 7 37 7 50 0 21 -11 59 -4 59 11 0 5 -6 7 -14 4 -10 -4 -15 13
-20 68 -8 91 -29 106 -102 74z m54 -108 c-2 -25 -8 -33 -23 -33 -26 0 -32 35
-9 52 28 20 36 16 32 -19z"/>
<path d="M2900 283 c-39 -13 -60 -28 -60 -45 0 -26 19 -22 30 7 16 42 70 30
70 -16 0 -5 -19 -18 -42 -30 -47 -24 -58 -35 -58 -61 0 -23 36 -32 71 -18 23
10 32 10 44 0 15 -12 55 -5 55 10 0 5 -7 7 -15 4 -12 -5 -15 5 -15 59 0 85
-22 110 -80 90z m40 -107 c0 -28 -24 -51 -45 -42 -19 7 -19 30 1 50 23 24 44
20 44 -8z"/>
<path d="M3308 275 c-57 -32 -64 -91 -18 -137 28 -27 36 -30 73 -25 112 15
117 157 6 172 -20 3 -45 -1 -61 -10z m70 -11 c40 -28 23 -144 -21 -144 -6 0
-19 7 -29 17 -24 21 -25 99 -1 125 20 22 23 22 51 2z"/>
<path d="M3510 277 c-35 -15 -34 -14 -16 -32 20 -20 22 -111 4 -118 -7 -3 3
-6 22 -6 l35 -1 0 67 0 68 30 0 c20 0 31 6 33 18 4 22 -30 23 -48 2 -15 -19
-28 -19 -32 -1 -2 10 -9 11 -28 3z"/>
<path d="M3680 272 c-38 -19 -56 -56 -23 -50 10 2 19 13 21 26 3 19 9 23 30
20 19 -2 28 -10 30 -24 2 -17 -7 -27 -40 -46 -32 -17 -44 -30 -46 -51 -4 -34
16 -43 60 -28 21 8 35 8 42 1 14 -14 42 -12 55 4 9 11 8 14 -6 12 -15 -1 -18
9 -21 64 -4 90 -30 109 -102 72z m56 -128 c-3 -8 -15 -14 -26 -14 -28 0 -27
44 3 65 21 15 22 14 25 -11 2 -14 1 -32 -2 -40z"/>
<path d="M4024 281 c-59 -25 -70 -96 -24 -143 28 -27 36 -30 73 -25 112 15
117 158 6 172 -19 3 -44 1 -55 -4z m70 -23 c23 -33 21 -101 -5 -124 -54 -49
-105 78 -52 131 20 21 39 19 57 -7z"/>
<path d="M4220 277 c-35 -15 -34 -14 -16 -32 19 -19 22 -95 4 -113 -9 -9 -4
-12 23 -12 l34 0 0 67 0 68 30 0 c20 0 31 6 33 18 4 22 -30 23 -48 2 -15 -19
-28 -19 -32 -1 -2 10 -9 11 -28 3z"/>
<path d="M4362 268 c8 -7 28 -46 43 -86 28 -70 28 -74 12 -107 -13 -26 -23
-35 -42 -35 -27 0 -35 -24 -10 -34 23 -8 42 18 105 144 33 65 65 120 72 123 7
3 -1 6 -19 6 -26 1 -30 -2 -26 -18 2 -10 -5 -38 -18 -62 l-22 -44 -19 54 c-14
43 -15 56 -6 63 8 4 -8 8 -36 8 -42 0 -47 -2 -34 -12z"/>
</g>
</svg>
